<svg width="50" height="50" viewBox="0 0 50 50" fill="none" xmlns="http://www.w3.org/2000/svg">
<g clip-path="url(#clip0_82_5)">
<path d="M36.4014 14.5264L38.5986 16.7236L20.3125 35.0098L11.4014 26.0986L13.5986 23.9014L20.3125 30.6152L36.4014 14.5264ZM25 0C27.2949 0 29.5085 0.292969 31.6406 0.878906C33.7728 1.46484 35.7666 2.30306 37.6221 3.39355C39.4775 4.48405 41.1621 5.78613 42.6758 7.2998C44.1895 8.81348 45.4915 10.5062 46.582 12.3779C47.6725 14.2497 48.5107 16.2435 49.0967 18.3594C49.6826 20.4753 49.9837 22.6888 50 25C50 27.2949 49.707 29.5085 49.1211 31.6406C48.5352 33.7728 47.6969 35.7666 46.6064 37.6221C45.516 39.4775 44.2139 41.1621 42.7002 42.6758C41.1865 44.1895 39.4938 45.4915 37.6221 46.582C35.7503 47.6725 33.7565 48.5107 31.6406 49.0967C29.5247 49.6826 27.3112 49.9837 25 50C22.7051 50 20.4915 49.707 18.3594 49.1211C16.2272 48.5352 14.2334 47.6969 12.3779 46.6064C10.5225 45.516 8.83789 44.2139 7.32422 42.7002C5.81055 41.1865 4.50846 39.4938 3.41797 37.6221C2.32747 35.7503 1.48926 33.7646 0.90332 31.665C0.317383 29.5654 0.016276 27.3438 0 25C0 22.7051 0.292969 20.4915 0.878906 18.3594C1.46484 16.2272 2.30306 14.2334 3.39355 12.3779C4.48405 10.5225 5.78613 8.83789 7.2998 7.32422C8.81348 5.81055 10.5062 4.50846 12.3779 3.41797C14.2497 2.32747 16.2354 1.48926 18.335 0.90332C20.4346 0.317383 22.6562 0.016276 25 0ZM25 46.875C27.002 46.875 28.9307 46.6146 30.7861 46.0938C32.6416 45.5729 34.3831 44.8405 36.0107 43.8965C37.6383 42.9525 39.1195 41.805 40.4541 40.4541C41.7887 39.1032 42.9281 37.6302 43.8721 36.0352C44.8161 34.4401 45.5566 32.6986 46.0938 30.8105C46.6309 28.9225 46.8913 26.9857 46.875 25C46.875 22.998 46.6146 21.0693 46.0938 19.2139C45.5729 17.3584 44.8405 15.6169 43.8965 13.9893C42.9525 12.3617 41.805 10.8805 40.4541 9.5459C39.1032 8.21126 37.6302 7.07194 36.0352 6.12793C34.4401 5.18392 32.6986 4.44336 30.8105 3.90625C28.9225 3.36914 26.9857 3.10872 25 3.125C22.998 3.125 21.0693 3.38542 19.2139 3.90625C17.3584 4.42708 15.6169 5.15951 13.9893 6.10352C12.3617 7.04753 10.8805 8.19499 9.5459 9.5459C8.21126 10.8968 7.07194 12.3698 6.12793 13.9648C5.18392 15.5599 4.44336 17.3014 3.90625 19.1895C3.36914 21.0775 3.10872 23.0143 3.125 25C3.125 27.002 3.38542 28.9307 3.90625 30.7861C4.42708 32.6416 5.15951 34.3831 6.10352 36.0107C7.04753 37.6383 8.19499 39.1195 9.5459 40.4541C10.8968 41.7887 12.3698 42.9281 13.9648 43.8721C15.5599 44.8161 17.3014 45.5566 19.1895 46.0938C21.0775 46.6309 23.0143 46.8913 25 46.875Z" fill="#4ECB71"/>
</g>
<defs>
<clipPath id="clip0_82_5">
<rect width="50" height="50" fill="white"/>
</clipPath>
</defs>
</svg>
