<svg width="17" height="17" viewBox="0 0 17 17" fill="none" xmlns="http://www.w3.org/2000/svg">
<path d="M8.5 0C9.28027 0 10.0329 0.0996094 10.7578 0.298828C11.4827 0.498047 12.1579 0.785807 12.7832 1.16211C13.4085 1.53841 13.9813 1.98112 14.5015 2.49023C15.0216 2.99935 15.4671 3.5721 15.8379 4.2085C16.2087 4.84489 16.4937 5.52279 16.6929 6.24219C16.8921 6.96159 16.9945 7.71419 17 8.5C17 9.28027 16.9004 10.0329 16.7012 10.7578C16.502 11.4827 16.2142 12.1579 15.8379 12.7832C15.4616 13.4085 15.0189 13.9813 14.5098 14.5015C14.0007 15.0216 13.4279 15.4671 12.7915 15.8379C12.1551 16.2087 11.4772 16.4937 10.7578 16.6929C10.0384 16.8921 9.28581 16.9945 8.5 17C7.71973 17 6.96712 16.9004 6.24219 16.7012C5.51725 16.502 4.84212 16.2142 4.2168 15.8379C3.59147 15.4616 3.01872 15.0189 2.49854 14.5098C1.97835 14.0007 1.53288 13.4279 1.16211 12.7915C0.791341 12.1551 0.506348 11.4772 0.307129 10.7578C0.10791 10.0384 0.00553385 9.28581 0 8.5C0 7.71973 0.0996094 6.96712 0.298828 6.24219C0.498047 5.51725 0.785807 4.84212 1.16211 4.2168C1.53841 3.59147 1.98112 3.01872 2.49023 2.49854C2.99935 1.97835 3.5721 1.53288 4.2085 1.16211C4.84489 0.791341 5.52279 0.506348 6.24219 0.307129C6.96159 0.10791 7.71419 0.00553385 8.5 0ZM13.5054 5.68604L12.3765 4.55713L6.90625 10.0273L4.62354 7.74463L3.49463 8.87354L6.90625 12.2852L13.5054 5.68604Z" fill="#4ECB71"/>
</svg>
