<svg width="58" height="58" viewBox="0 0 58 58" fill="none" xmlns="http://www.w3.org/2000/svg">
<g filter="url(#filter0_d_133_8)">
<path fill-rule="evenodd" clip-rule="evenodd" d="M4 25C4 11.1929 15.1929 0 29 0C42.807 0 54 11.1929 54 25C54 38.807 42.807 50 29 50C15.1929 50 4 38.807 4 25ZM38.2677 18.2322C39.244 19.2085 39.244 20.7915 38.2677 21.7677L29.0607 30.9748C27.6465 32.389 25.3535 32.389 23.9392 30.9748L19.7322 26.7677C18.7559 25.7915 18.7559 24.2085 19.7322 23.2323C20.7085 22.256 22.2915 22.256 23.2678 23.2323L26.5 26.4645L34.7323 18.2322C35.7085 17.2559 37.2915 17.2559 38.2677 18.2322Z" fill="#4ECB71"/>
</g>
<defs>
<filter id="filter0_d_133_8" x="0" y="0" width="58" height="58" filterUnits="userSpaceOnUse" color-interpolation-filters="sRGB">
<feFlood flood-opacity="0" result="BackgroundImageFix"/>
<feColorMatrix in="SourceAlpha" type="matrix" values="0 0 0 0 0 0 0 0 0 0 0 0 0 0 0 0 0 0 127 0" result="hardAlpha"/>
<feOffset dy="4"/>
<feGaussianBlur stdDeviation="2"/>
<feComposite in2="hardAlpha" operator="out"/>
<feColorMatrix type="matrix" values="0 0 0 0 0 0 0 0 0 0 0 0 0 0 0 0 0 0 0.25 0"/>
<feBlend mode="normal" in2="BackgroundImageFix" result="effect1_dropShadow_133_8"/>
<feBlend mode="normal" in="SourceGraphic" in2="effect1_dropShadow_133_8" result="shape"/>
</filter>
</defs>
</svg>
