<svg width="352" height="63" viewBox="0 0 352 63" fill="none" xmlns="http://www.w3.org/2000/svg">
<g filter="url(#filter0_dd_1_781)">
<rect x="3.5" y="3.53711" width="345" height="54" rx="10" fill="white"/>
<rect x="55" y="3.53711" width="242" height="54" rx="10" fill="white"/>
<rect width="24" height="24" transform="translate(70 18.5371)" fill="white"/>
<path fill-rule="evenodd" clip-rule="evenodd" d="M93.04 30.7984C93.04 29.983 92.9668 29.1989 92.8309 28.4462H82V32.8946H88.1891C87.9225 34.3321 87.1123 35.55 85.8943 36.3655V39.2509H89.6109C91.7855 37.2489 93.04 34.3007 93.04 30.7984Z" fill="#4285F4"/>
<path fill-rule="evenodd" clip-rule="evenodd" d="M81.9999 42.0369C85.1049 42.0369 87.7081 41.0072 89.6108 39.2508L85.8942 36.3653C84.8644 37.0553 83.5472 37.4631 81.9999 37.4631C79.0047 37.4631 76.4694 35.4401 75.5651 32.7219H71.7231V35.7015C73.6154 39.4599 77.5044 42.0369 81.9999 42.0369Z" fill="#34A853"/>
<path fill-rule="evenodd" clip-rule="evenodd" d="M75.5652 32.7222C75.3352 32.0322 75.2045 31.2952 75.2045 30.5372C75.2045 29.7793 75.3352 29.0422 75.5652 28.3522V25.3727H71.7232C70.9443 26.9252 70.5 28.6815 70.5 30.5372C70.5 32.3929 70.9443 34.1493 71.7232 35.7018L75.5652 32.7222Z" fill="#FBBC05"/>
<path fill-rule="evenodd" clip-rule="evenodd" d="M81.9999 23.611C83.6883 23.611 85.2042 24.1912 86.396 25.3307L89.6944 22.0323C87.7029 20.1767 85.0997 19.0371 81.9999 19.0371C77.5044 19.0371 73.6154 21.6142 71.7231 25.3726L75.5651 28.3521C76.4694 25.6339 79.0047 23.611 81.9999 23.611Z" fill="#EA4335"/>
<path d="M117.877 32.875C117.877 32.25 117.656 31.7682 117.213 31.4297C116.777 31.0911 115.986 30.7493 114.84 30.4043C113.694 30.0592 112.783 29.6751 112.105 29.252C110.81 28.4382 110.162 27.377 110.162 26.0684C110.162 24.9225 110.628 23.9785 111.559 23.2363C112.496 22.4941 113.71 22.123 115.201 22.123C116.191 22.123 117.073 22.3053 117.848 22.6699C118.622 23.0345 119.231 23.5553 119.674 24.2324C120.117 24.903 120.338 25.6484 120.338 26.4688H117.877C117.877 25.7266 117.643 25.1471 117.174 24.7305C116.712 24.3073 116.048 24.0957 115.182 24.0957C114.374 24.0957 113.746 24.2682 113.297 24.6133C112.854 24.9583 112.633 25.4401 112.633 26.0586C112.633 26.5794 112.874 27.0156 113.355 27.3672C113.837 27.7122 114.632 28.0508 115.738 28.3828C116.845 28.7083 117.734 29.0827 118.404 29.5059C119.075 29.9225 119.566 30.4043 119.879 30.9512C120.191 31.4915 120.348 32.1263 120.348 32.8555C120.348 34.0404 119.892 34.9844 118.98 35.6875C118.076 36.3841 116.845 36.7324 115.289 36.7324C114.26 36.7324 113.313 36.5436 112.447 36.166C111.588 35.7819 110.917 35.2546 110.436 34.584C109.96 33.9134 109.723 33.1322 109.723 32.2402H112.193C112.193 33.0475 112.46 33.6725 112.994 34.1152C113.528 34.5579 114.293 34.7793 115.289 34.7793C116.148 34.7793 116.793 34.6068 117.223 34.2617C117.659 33.9102 117.877 33.4479 117.877 32.875ZM124.811 36.5371H122.438V25.9707H124.811V36.5371ZM122.291 23.2266C122.291 22.862 122.405 22.5592 122.633 22.3184C122.867 22.0775 123.199 21.957 123.629 21.957C124.059 21.957 124.391 22.0775 124.625 22.3184C124.859 22.5592 124.977 22.862 124.977 23.2266C124.977 23.5846 124.859 23.8841 124.625 24.125C124.391 24.3594 124.059 24.4766 123.629 24.4766C123.199 24.4766 122.867 24.3594 122.633 24.125C122.405 23.8841 122.291 23.5846 122.291 23.2266ZM126.988 31.1758C126.988 29.5352 127.372 28.2266 128.141 27.25C128.915 26.2669 129.941 25.7754 131.217 25.7754C132.421 25.7754 133.368 26.1953 134.059 27.0352L134.166 25.9707H136.305V36.2148C136.305 37.6016 135.872 38.6953 135.006 39.4961C134.146 40.2969 132.984 40.6973 131.52 40.6973C130.745 40.6973 129.986 40.5345 129.244 40.209C128.508 39.89 127.949 39.4701 127.564 38.9492L128.688 37.5234C129.417 38.3893 130.315 38.8223 131.383 38.8223C132.171 38.8223 132.792 38.6074 133.248 38.1777C133.704 37.7546 133.932 37.1296 133.932 36.3027V35.5898C133.248 36.3516 132.337 36.7324 131.197 36.7324C129.96 36.7324 128.948 36.2409 128.16 35.2578C127.379 34.2747 126.988 32.9141 126.988 31.1758ZM129.352 31.3809C129.352 32.4421 129.566 33.2786 129.996 33.8906C130.432 34.4961 131.035 34.7988 131.803 34.7988C132.76 34.7988 133.469 34.3887 133.932 33.5684V28.9199C133.482 28.1191 132.779 27.7188 131.822 27.7188C131.041 27.7188 130.432 28.028 129.996 28.6465C129.566 29.265 129.352 30.1764 129.352 31.3809ZM140.953 25.9707L141.021 27.1914C141.803 26.2474 142.828 25.7754 144.098 25.7754C146.298 25.7754 147.418 27.0352 147.457 29.5547V36.5371H145.084V29.6914C145.084 29.0208 144.938 28.526 144.645 28.207C144.358 27.8815 143.886 27.7188 143.229 27.7188C142.271 27.7188 141.559 28.1517 141.09 29.0176V36.5371H138.717V25.9707H140.953ZM157.701 36.5371H155.24V22.3184H157.701V36.5371ZM162.711 25.9707L162.779 27.1914C163.561 26.2474 164.586 25.7754 165.855 25.7754C168.056 25.7754 169.176 27.0352 169.215 29.5547V36.5371H166.842V29.6914C166.842 29.0208 166.695 28.526 166.402 28.207C166.116 27.8815 165.644 27.7188 164.986 27.7188C164.029 27.7188 163.316 28.1517 162.848 29.0176V36.5371H160.475V25.9707H162.711ZM185.904 33.2656L187.584 25.9707H189.898L187.018 36.5371H185.064L182.799 29.2812L180.572 36.5371H178.619L175.729 25.9707H178.043L179.752 33.1875L181.92 25.9707H183.707L185.904 33.2656ZM194.01 36.5371H191.637V25.9707H194.01V36.5371ZM191.49 23.2266C191.49 22.862 191.604 22.5592 191.832 22.3184C192.066 22.0775 192.398 21.957 192.828 21.957C193.258 21.957 193.59 22.0775 193.824 22.3184C194.059 22.5592 194.176 22.862 194.176 23.2266C194.176 23.5846 194.059 23.8841 193.824 24.125C193.59 24.3594 193.258 24.4766 192.828 24.4766C192.398 24.4766 192.066 24.3594 191.832 24.125C191.604 23.8841 191.49 23.5846 191.49 23.2266ZM199.576 23.4023V25.9707H201.441V27.7285H199.576V33.627C199.576 34.0306 199.654 34.3236 199.811 34.5059C199.973 34.6816 200.26 34.7695 200.67 34.7695C200.943 34.7695 201.22 34.737 201.5 34.6719V36.5078C200.96 36.6576 200.439 36.7324 199.938 36.7324C198.115 36.7324 197.203 35.7266 197.203 33.7148V27.7285H195.465V25.9707H197.203V23.4023H199.576ZM205.602 27.123C206.376 26.2246 207.356 25.7754 208.541 25.7754C210.794 25.7754 211.936 27.0612 211.969 29.6328V36.5371H209.596V29.7207C209.596 28.9915 209.436 28.4772 209.117 28.1777C208.805 27.8717 208.342 27.7188 207.73 27.7188C206.78 27.7188 206.07 28.1419 205.602 28.9883V36.5371H203.229V21.5371H205.602V27.123ZM230.484 34.6914C229.97 35.362 229.257 35.8698 228.346 36.2148C227.434 36.5599 226.399 36.7324 225.24 36.7324C224.049 36.7324 222.994 36.4622 222.076 35.9219C221.158 35.3815 220.449 34.61 219.947 33.6074C219.452 32.5983 219.195 31.4232 219.176 30.082V28.9688C219.176 26.8203 219.69 25.1439 220.719 23.9395C221.747 22.7285 223.183 22.123 225.025 22.123C226.607 22.123 227.864 22.5137 228.795 23.2949C229.726 24.0762 230.286 25.2025 230.475 26.6738H228.053C227.779 24.9616 226.786 24.1055 225.074 24.1055C223.967 24.1055 223.124 24.5059 222.545 25.3066C221.972 26.1009 221.676 27.2695 221.656 28.8125V29.9062C221.656 31.4427 221.979 32.6374 222.623 33.4902C223.274 34.3366 224.176 34.7598 225.328 34.7598C226.591 34.7598 227.49 34.4733 228.023 33.9004V31.1172H225.094V29.2422H230.484V34.6914ZM232.525 31.1562C232.525 30.1211 232.73 29.1901 233.141 28.3633C233.551 27.5299 234.127 26.8919 234.869 26.4492C235.611 26 236.464 25.7754 237.428 25.7754C238.854 25.7754 240.009 26.2344 240.895 27.1523C241.786 28.0703 242.268 29.2878 242.34 30.8047L242.35 31.3613C242.35 32.403 242.148 33.334 241.744 34.1543C241.347 34.9746 240.774 35.6094 240.025 36.0586C239.283 36.5078 238.424 36.7324 237.447 36.7324C235.956 36.7324 234.762 36.2376 233.863 35.248C232.971 34.252 232.525 32.9271 232.525 31.2734V31.1562ZM234.898 31.3613C234.898 32.4486 235.123 33.3014 235.572 33.9199C236.021 34.5319 236.646 34.8379 237.447 34.8379C238.248 34.8379 238.87 34.5254 239.312 33.9004C239.762 33.2754 239.986 32.3607 239.986 31.1562C239.986 30.0885 239.755 29.2422 239.293 28.6172C238.837 27.9922 238.215 27.6797 237.428 27.6797C236.653 27.6797 236.038 27.9889 235.582 28.6074C235.126 29.2194 234.898 30.1374 234.898 31.3613ZM243.912 31.1562C243.912 30.1211 244.117 29.1901 244.527 28.3633C244.938 27.5299 245.514 26.8919 246.256 26.4492C246.998 26 247.851 25.7754 248.814 25.7754C250.24 25.7754 251.396 26.2344 252.281 27.1523C253.173 28.0703 253.655 29.2878 253.727 30.8047L253.736 31.3613C253.736 32.403 253.535 33.334 253.131 34.1543C252.734 34.9746 252.161 35.6094 251.412 36.0586C250.67 36.5078 249.811 36.7324 248.834 36.7324C247.343 36.7324 246.148 36.2376 245.25 35.248C244.358 34.252 243.912 32.9271 243.912 31.2734V31.1562ZM246.285 31.3613C246.285 32.4486 246.51 33.3014 246.959 33.9199C247.408 34.5319 248.033 34.8379 248.834 34.8379C249.635 34.8379 250.257 34.5254 250.699 33.9004C251.148 33.2754 251.373 32.3607 251.373 31.1562C251.373 30.0885 251.142 29.2422 250.68 28.6172C250.224 27.9922 249.602 27.6797 248.814 27.6797C248.04 27.6797 247.424 27.9889 246.969 28.6074C246.513 29.2194 246.285 30.1374 246.285 31.3613ZM255.328 31.1758C255.328 29.5352 255.712 28.2266 256.48 27.25C257.255 26.2669 258.281 25.7754 259.557 25.7754C260.761 25.7754 261.708 26.1953 262.398 27.0352L262.506 25.9707H264.645V36.2148C264.645 37.6016 264.212 38.6953 263.346 39.4961C262.486 40.2969 261.324 40.6973 259.859 40.6973C259.085 40.6973 258.326 40.5345 257.584 40.209C256.848 39.89 256.288 39.4701 255.904 38.9492L257.027 37.5234C257.757 38.3893 258.655 38.8223 259.723 38.8223C260.51 38.8223 261.132 38.6074 261.588 38.1777C262.044 37.7546 262.271 37.1296 262.271 36.3027V35.5898C261.588 36.3516 260.676 36.7324 259.537 36.7324C258.3 36.7324 257.288 36.2409 256.5 35.2578C255.719 34.2747 255.328 32.9141 255.328 31.1758ZM257.691 31.3809C257.691 32.4421 257.906 33.2786 258.336 33.8906C258.772 34.4961 259.374 34.7988 260.143 34.7988C261.1 34.7988 261.809 34.3887 262.271 33.5684V28.9199C261.822 28.1191 261.119 27.7188 260.162 27.7188C259.381 27.7188 258.772 28.028 258.336 28.6465C257.906 29.265 257.691 30.1764 257.691 31.3809ZM269.615 36.5371H267.242V21.5371H269.615V36.5371ZM276.861 36.7324C275.357 36.7324 274.137 36.2604 273.199 35.3164C272.268 34.3659 271.803 33.1029 271.803 31.5273V31.2344C271.803 30.1797 272.005 29.2389 272.408 28.4121C272.818 27.5788 273.391 26.931 274.127 26.4688C274.863 26.0065 275.683 25.7754 276.588 25.7754C278.027 25.7754 279.137 26.2344 279.918 27.1523C280.706 28.0703 281.1 29.3691 281.1 31.0488V32.0059H274.195C274.267 32.8783 274.557 33.5684 275.064 34.0762C275.579 34.584 276.223 34.8379 276.998 34.8379C278.085 34.8379 278.971 34.3984 279.654 33.5195L280.934 34.7402C280.51 35.3717 279.944 35.8633 279.234 36.2148C278.531 36.5599 277.74 36.7324 276.861 36.7324ZM276.578 27.6797C275.927 27.6797 275.4 27.9076 274.996 28.3633C274.599 28.819 274.345 29.4538 274.234 30.2676H278.756V30.0918C278.704 29.2975 278.492 28.6986 278.121 28.2949C277.75 27.8848 277.236 27.6797 276.578 27.6797Z" fill="black" fill-opacity="0.54"/>
</g>
<defs>
<filter id="filter0_dd_1_781" x="0.5" y="0.537109" width="351" height="62" filterUnits="userSpaceOnUse" color-interpolation-filters="sRGB">
<feFlood flood-opacity="0" result="BackgroundImageFix"/>
<feColorMatrix in="SourceAlpha" type="matrix" values="0 0 0 0 0 0 0 0 0 0 0 0 0 0 0 0 0 0 127 0" result="hardAlpha"/>
<feOffset dy="2"/>
<feGaussianBlur stdDeviation="1.5"/>
<feColorMatrix type="matrix" values="0 0 0 0 0 0 0 0 0 0 0 0 0 0 0 0 0 0 0.168 0"/>
<feBlend mode="normal" in2="BackgroundImageFix" result="effect1_dropShadow_1_781"/>
<feColorMatrix in="SourceAlpha" type="matrix" values="0 0 0 0 0 0 0 0 0 0 0 0 0 0 0 0 0 0 127 0" result="hardAlpha"/>
<feOffset/>
<feGaussianBlur stdDeviation="1.5"/>
<feColorMatrix type="matrix" values="0 0 0 0 0 0 0 0 0 0 0 0 0 0 0 0 0 0 0.084 0"/>
<feBlend mode="normal" in2="effect1_dropShadow_1_781" result="effect2_dropShadow_1_781"/>
<feBlend mode="normal" in="SourceGraphic" in2="effect2_dropShadow_1_781" result="shape"/>
</filter>
</defs>
</svg>
