<svg width="38" height="38" viewBox="0 0 38 38" fill="none" xmlns="http://www.w3.org/2000/svg">
<path d="M18.7563 37.5C16.1646 37.5 13.7271 37.0076 11.4437 36.0229C9.16042 35.0382 7.175 33.7028 5.4875 32.0167C3.79861 30.3292 2.46181 28.3444 1.47708 26.0625C0.492361 23.7819 0 21.3444 0 18.75C0 16.1528 0.484722 13.7229 1.45417 11.4604C2.42361 9.19653 3.76597 7.20347 5.48125 5.48125L18.75 18.75V0C21.3375 0 23.7729 0.491666 26.0562 1.475C28.3382 2.45972 30.3236 3.79583 32.0125 5.48333C33.7014 7.16944 35.0382 9.15278 36.0229 11.4333C37.0076 13.7139 37.5 16.1507 37.5 18.7437C37.5 21.3354 37.0083 23.7729 36.025 26.0562C35.0403 28.3382 33.7042 30.3236 32.0167 32.0125C30.3306 33.7014 28.3472 35.0382 26.0667 36.0229C23.7861 37.0076 21.3493 37.5 18.7563 37.5Z" fill="#E4B251"/>
</svg>
