<svg width="38" height="38" viewBox="0 0 38 38" fill="none" xmlns="http://www.w3.org/2000/svg">
<path d="M2.85419 25.4679L2.85432 25.4682C3.76699 27.5831 4.99857 29.4077 6.54772 30.9556C8.09553 32.5021 9.92092 33.7326 12.0378 34.6455C14.1256 35.5459 16.3601 36 18.7563 36C21.1539 36 23.3875 35.5459 25.472 34.6458C27.5855 33.7332 29.4086 32.5018 30.9551 30.9527L30.9556 30.9523C32.5038 29.4028 33.7349 27.5773 34.6478 25.4619C35.5467 23.3742 36 21.1398 36 18.7437C36 16.3461 35.5459 14.1125 34.6458 12.028C33.7332 9.91447 32.5018 8.09136 30.9527 6.54487L30.9523 6.54443C29.4031 4.99649 27.5778 3.76545 25.4629 2.85267L2.85419 25.4679ZM2.85419 25.4679C1.95414 23.3834 1.5 21.1492 1.5 18.75C1.5 16.3445 1.94785 14.1168 2.83293 12.0512L2.83306 12.0509M2.85419 25.4679L2.83306 12.0509M2.83306 12.0509C3.55734 10.3595 4.50408 8.83681 5.67506 7.47745L15.6174 14.7128L17.5805 16.1414M2.83306 12.0509L17.5805 16.1414M17.5805 16.1414L17.9796 13.7466M17.5805 16.1414L17.9796 13.7466M17.9796 13.7466L20.0135 1.54314M17.9796 13.7466L20.0135 1.54314M20.0135 1.54314C21.9329 1.6757 23.7466 2.11354 25.4627 2.85259L20.0135 1.54314Z" stroke="#E4B251" stroke-width="3"/>
</svg>
