<svg width="60" height="60" viewBox="0 0 60 60" fill="none" xmlns="http://www.w3.org/2000/svg">
<path d="M30 5C16.215 5 5 16.215 5 30C5 43.785 16.215 55 30 55C43.785 55 55 43.785 55 30C55 16.215 43.785 5 30 5ZM30 50C18.9725 50 10 41.0275 10 30C10 18.9725 18.9725 10 30 10C41.0275 10 50 18.9725 50 30C50 41.0275 41.0275 50 30 50Z" fill="#EDBA56"/>
<path d="M30 12.915V30H47.085C47.0906 27.7548 46.6525 25.5306 45.7959 23.4552C44.9393 21.3798 43.681 19.4942 42.0934 17.9066C40.5058 16.3189 38.6202 15.0607 36.5448 14.2041C34.4694 13.3475 32.2452 12.9094 30 12.915Z" fill="#EDBA56"/>
</svg>
