<svg width="42" height="42" viewBox="0 0 42 42" fill="none" xmlns="http://www.w3.org/2000/svg">
<path d="M0.166668 21C0.166668 32.5063 9.49375 41.8334 21 41.8334C32.5062 41.8334 41.8333 32.5063 41.8333 21C41.8333 9.49377 32.5062 0.166687 21 0.166687C9.49375 0.166687 0.166668 9.49377 0.166668 21ZM37.6667 21C37.6667 25.4203 35.9107 29.6595 32.7851 32.7851C29.6595 35.9107 25.4203 37.6667 21 37.6667C16.5797 37.6667 12.3405 35.9107 9.21489 32.7851C6.08928 29.6595 4.33333 25.4203 4.33333 21C4.33333 16.5797 6.08928 12.3405 9.21489 9.21491C12.3405 6.0893 16.5797 4.33335 21 4.33335C25.4203 4.33335 29.6595 6.0893 32.7851 9.21491C35.9107 12.3405 37.6667 16.5797 37.6667 21ZM21 21V8.50002C22.6419 8.49755 24.2682 8.81967 25.7852 9.44785C27.3022 10.076 28.6801 10.9979 29.8396 12.1604L21 21Z" fill="#E4B251"/>
</svg>
