<svg width="17" height="17" viewBox="0 0 17 17" fill="none" xmlns="http://www.w3.org/2000/svg">
<path d="M8.5 0C9.28325 0 10.0359 0.098758 10.7578 0.296274C11.4798 0.49379 12.1575 0.779848 12.7909 1.15445C13.4243 1.52905 13.9964 1.97175 14.5072 2.48257C15.018 2.99339 15.4607 3.5655 15.8353 4.19892C16.2099 4.83233 16.496 5.51002 16.6935 6.23197C16.891 6.95393 16.9932 7.70994 17 8.5C17 9.28325 16.9012 10.0359 16.7037 10.7578C16.5062 11.4798 16.2202 12.1575 15.8456 12.7909C15.471 13.4243 15.0282 13.9964 14.5174 14.5072C14.0066 15.018 13.4345 15.4607 12.8011 15.8353C12.1677 16.2099 11.49 16.496 10.768 16.6935C10.0461 16.891 9.29006 16.9932 8.5 17C7.71675 17 6.96414 16.9012 6.24219 16.7037C5.52023 16.5062 4.84255 16.2202 4.20913 15.8456C3.57572 15.471 3.00361 15.0282 2.49279 14.5174C1.98197 14.0066 1.53926 13.4345 1.16466 12.8011C0.790064 12.1677 0.504006 11.49 0.30649 10.768C0.108974 10.0461 0.0068109 9.29006 0 8.5C0 7.71675 0.098758 6.96414 0.296274 6.24219C0.49379 5.52023 0.779848 4.84255 1.15445 4.20913C1.52905 3.57572 1.97175 3.00361 2.48257 2.49279C2.99339 1.98197 3.5655 1.53926 4.19892 1.16466C4.83233 0.790064 5.51002 0.504006 6.23197 0.30649C6.95393 0.108974 7.70994 0.0068109 8.5 0ZM8.5 15.6923C9.16066 15.6923 9.79748 15.6072 10.4105 15.4369C11.0234 15.2666 11.5956 15.0248 12.1268 14.7115C12.6581 14.3982 13.1416 14.0236 13.5775 13.5877C14.0134 13.1518 14.3914 12.6649 14.7115 12.1268C15.0317 11.5887 15.2734 11.0166 15.4369 10.4105C15.6004 9.80429 15.6855 9.16747 15.6923 8.5C15.6923 7.83934 15.6072 7.20252 15.4369 6.58954C15.2666 5.97656 15.0248 5.40445 14.7115 4.8732C14.3982 4.34195 14.0236 3.85837 13.5877 3.42248C13.1518 2.98658 12.6649 2.60857 12.1268 2.28846C11.5887 1.96835 11.0166 1.72656 10.4105 1.5631C9.80429 1.39964 9.16747 1.3145 8.5 1.30769C7.83934 1.30769 7.20252 1.39283 6.58954 1.5631C5.97656 1.73337 5.40445 1.97516 4.8732 2.28846C4.34195 2.60176 3.85837 2.97636 3.42248 3.41226C2.98658 3.84816 2.60857 4.33514 2.28846 4.8732C1.96835 5.41126 1.72656 5.98337 1.5631 6.58954C1.39964 7.19571 1.3145 7.83253 1.30769 8.5C1.30769 9.16066 1.39283 9.79748 1.5631 10.4105C1.73337 11.0234 1.97516 11.5956 2.28846 12.1268C2.60176 12.6581 2.97636 13.1416 3.41226 13.5775C3.84816 14.0134 4.33514 14.3914 4.8732 14.7115C5.41126 15.0317 5.98337 15.2734 6.58954 15.4369C7.19571 15.6004 7.83253 15.6855 8.5 15.6923Z" fill="white" fill-opacity="0.64"/>
</svg>
