<svg width="44" height="44" viewBox="0 0 44 44" fill="none" xmlns="http://www.w3.org/2000/svg">
<path d="M18.875 12.625H15.75V31.375H18.875V12.625ZM28.25 12.625H25.125V31.375H28.25V12.625Z" fill="#4ECB71"/>
<path d="M22 3.25C25.7084 3.25 29.3335 4.34967 32.4169 6.40994C35.5004 8.47022 37.9036 11.3986 39.3227 14.8247C40.7419 18.2508 41.1132 22.0208 40.3897 25.6579C39.6662 29.2951 37.8805 32.636 35.2582 35.2583C32.636 37.8805 29.2951 39.6662 25.6579 40.3897C22.0208 41.1132 18.2508 40.7419 14.8247 39.3227C11.3986 37.9036 8.47022 35.5004 6.40994 32.4169C4.34966 29.3335 3.24999 25.7084 3.24999 22C3.24999 17.0272 5.22544 12.2581 8.74174 8.74175C12.258 5.22544 17.0272 3.25 22 3.25ZM22 0.125C17.6735 0.125 13.4442 1.40795 9.8469 3.8116C6.24957 6.21526 3.4458 9.63167 1.79013 13.6288C0.134463 17.6259 -0.298735 22.0243 0.545317 26.2676C1.38937 30.5109 3.47276 34.4087 6.53203 37.468C9.59131 40.5272 13.4891 42.6106 17.7324 43.4547C21.9757 44.2987 26.3741 43.8655 30.3712 42.2099C34.3683 40.5542 37.7847 37.7504 40.1884 34.1531C42.592 30.5558 43.875 26.3265 43.875 22C43.875 16.1984 41.5703 10.6344 37.468 6.53204C33.3656 2.42968 27.8016 0.125 22 0.125Z" fill="#4ECB71"/>
</svg>
