<svg width="44" height="44" viewBox="0 0 44 44" fill="none" xmlns="http://www.w3.org/2000/svg">
<path d="M19.2427 14.6557C18.9639 14.4964 18.6482 14.4132 18.3271 14.4143C18.0061 14.4154 17.691 14.5007 17.4133 14.6618C17.1356 14.823 16.9051 15.0542 16.7448 15.3324C16.5845 15.6106 16.5001 15.9259 16.5 16.247V27.7548C16.5001 28.0759 16.5845 28.3913 16.7448 28.6695C16.9051 28.9476 17.1356 29.1789 17.4133 29.34C17.691 29.5011 18.0061 29.5865 18.3271 29.5876C18.6482 29.5886 18.9639 29.5054 19.2427 29.3462L29.3113 23.5913C29.5917 23.4309 29.8248 23.1993 29.9869 22.9198C30.1489 22.6404 30.2343 22.323 30.2343 22C30.2343 21.677 30.1489 21.3596 29.9869 21.0802C29.8248 20.8007 29.5917 20.5691 29.3113 20.4087L19.2427 14.6557Z" fill="#4ECB71"/>
<path d="M21.875 3.125C25.5834 3.125 29.2085 4.22467 32.292 6.28494C35.3754 8.34522 37.7786 11.2736 39.1978 14.6997C40.6169 18.1258 40.9882 21.8958 40.2647 25.5329C39.5413 29.1701 37.7555 32.511 35.1333 35.1333C32.511 37.7555 29.1701 39.5412 25.533 40.2647C21.8958 40.9882 18.1258 40.6169 14.6997 39.1977C11.2736 37.7786 8.34523 35.3754 6.28495 32.2919C4.22468 29.2085 3.12501 25.5834 3.12501 21.875C3.12501 16.9022 5.10045 12.1331 8.61676 8.61675C12.1331 5.10044 16.9022 3.125 21.875 3.125ZM21.875 0C17.5485 0 13.3192 1.28295 9.72191 3.6866C6.12459 6.09026 3.32081 9.50667 1.66515 13.5038C0.00947809 17.5009 -0.42372 21.8993 0.420332 26.1426C1.26438 30.3859 3.34778 34.2837 6.40705 37.343C9.46632 40.4022 13.3641 42.4856 17.6074 43.3297C21.8507 44.1737 26.2491 43.7405 30.2462 42.0849C34.2433 40.4292 37.6598 37.6254 40.0634 34.0281C42.4671 30.4308 43.75 26.2015 43.75 21.875C43.75 16.0734 41.4453 10.5094 37.343 6.40704C33.2406 2.30468 27.6766 0 21.875 0Z" fill="#4ECB71"/>
</svg>
