<svg width="17" height="17" viewBox="0 0 17 17" fill="none" xmlns="http://www.w3.org/2000/svg">
<path d="M8.5 0C9.28027 0 10.0329 0.0996094 10.7578 0.298828C11.4827 0.498047 12.1579 0.785807 12.7832 1.16211C13.4085 1.53841 13.9813 1.98112 14.5015 2.49023C15.0216 2.99935 15.4671 3.5721 15.8379 4.2085C16.2087 4.84489 16.4937 5.52279 16.6929 6.24219C16.8921 6.96159 16.9945 7.71419 17 8.5C17 9.28027 16.9004 10.0329 16.7012 10.7578C16.502 11.4827 16.2142 12.1579 15.8379 12.7832C15.4616 13.4085 15.0189 13.9813 14.5098 14.5015C14.0007 15.0216 13.4279 15.4671 12.7915 15.8379C12.1551 16.2087 11.4772 16.4937 10.7578 16.6929C10.0384 16.8921 9.28581 16.9945 8.5 17C7.71973 17 6.96712 16.9004 6.24219 16.7012C5.51725 16.502 4.84212 16.2142 4.2168 15.8379C3.59147 15.4616 3.01872 15.0189 2.49854 14.5098C1.97835 14.0007 1.53288 13.4279 1.16211 12.7915C0.791341 12.1551 0.506348 11.4772 0.307129 10.7578C0.10791 10.0384 0.00553385 9.28581 0 8.5C0 7.71973 0.0996094 6.96712 0.298828 6.24219C0.498047 5.51725 0.785807 4.84212 1.16211 4.2168C1.53841 3.59147 1.98112 3.01872 2.49023 2.49854C2.99935 1.97835 3.5721 1.53288 4.2085 1.16211C4.84489 0.791341 5.52279 0.506348 6.24219 0.307129C6.96159 0.10791 7.71419 0.00553385 8.5 0ZM8.5 12.9326C8.92611 12.9326 9.33838 12.8745 9.73682 12.7583C10.1353 12.6421 10.5116 12.4705 10.8657 12.2437C11.2199 12.0168 11.5353 11.7511 11.812 11.4468C12.0887 11.1424 12.3211 10.7938 12.5093 10.4009L11.2144 9.78662C11.0871 10.0467 10.9294 10.2819 10.7412 10.4922C10.5531 10.7025 10.34 10.8823 10.1021 11.0317C9.8641 11.1812 9.60954 11.2974 9.33838 11.3804C9.06722 11.4634 8.78776 11.5049 8.5 11.5049C8.10156 11.5049 7.72249 11.4274 7.36279 11.2725C7.00309 11.1175 6.67936 10.9017 6.3916 10.625H7.4375V9.5625H4.25V12.75H5.3125V11.5713C5.72754 12.0029 6.21175 12.3377 6.76514 12.5757C7.31852 12.8136 7.89681 12.9326 8.5 12.9326ZM12.75 7.4375V4.25H11.6875V5.42871C11.2725 4.99707 10.7882 4.66227 10.2349 4.42432C9.68148 4.18636 9.10319 4.06738 8.5 4.06738C8.07389 4.06738 7.66162 4.12549 7.26318 4.2417C6.86475 4.35791 6.48844 4.52946 6.13428 4.75635C5.78011 4.98324 5.46468 5.24886 5.18799 5.55322C4.9113 5.85758 4.67887 6.20622 4.49072 6.59912L5.78564 7.21338C5.90739 6.95329 6.06234 6.7181 6.25049 6.50781C6.43864 6.29753 6.65446 6.11768 6.89795 5.96826C7.14144 5.81885 7.396 5.70264 7.66162 5.61963C7.92725 5.53662 8.20671 5.49512 8.5 5.49512C8.89844 5.49512 9.27751 5.57259 9.63721 5.72754C9.99691 5.88249 10.3206 6.09831 10.6084 6.375H9.5625V7.4375H12.75Z" fill="#A351E4"/>
</svg>
