<svg width="60" height="60" viewBox="0 0 60 60" fill="none" xmlns="http://www.w3.org/2000/svg">
<path d="M30 5C16.2 5 5 16.2 5 30C5 43.8 16.2 55 30 55C43.8 55 55 43.8 55 30C55 16.2 43.8 5 30 5ZM42.975 39.85C42.875 40.075 42.75 40.275 42.575 40.45L38.35 44.675C37.975 45.05 37.5 45.225 37.025 45.225C36.55 45.225 36.075 45.05 35.7 44.675C34.975 43.95 34.975 42.75 35.7 42.025L36.725 41H22.75C19.5 41 16.875 38.35 16.875 35.125V30.7C16.875 29.675 17.725 28.825 18.75 28.825C19.775 28.825 20.625 29.675 20.625 30.7V35.125C20.625 36.3 21.575 37.25 22.75 37.25H36.725L35.7 36.225C34.975 35.5 34.975 34.3 35.7 33.575C36.425 32.85 37.625 32.85 38.35 33.575L42.575 37.8C42.75 37.975 42.875 38.175 42.975 38.4C43.175 38.875 43.175 39.4 42.975 39.85ZM43.125 29.3C43.125 30.325 42.275 31.175 41.25 31.175C40.225 31.175 39.375 30.325 39.375 29.3V24.875C39.375 23.7 38.425 22.75 37.25 22.75H23.275L24.3 23.75C25.025 24.475 25.025 25.675 24.3 26.4C23.925 26.775 23.45 26.95 22.975 26.95C22.5 26.95 22.025 26.775 21.65 26.4L17.425 22.175C17.25 22 17.125 21.8 17.025 21.575C16.825 21.125 16.825 20.6 17.025 20.15C17.125 19.925 17.25 19.7 17.425 19.525L21.65 15.3C22.375 14.575 23.575 14.575 24.3 15.3C25.025 16.025 25.025 17.225 24.3 17.95L23.275 18.975H37.25C40.5 18.975 43.125 21.625 43.125 24.85V29.3Z" fill="#5BB5E7"/>
</svg>
